<svg xmlns="http://www.w3.org/2000/svg" viewBox="0 0 458.400 561.200" width="458.400" height="561.200">
  <path d="M68 0V493H167V386L147 380Q160 421 184.5 447.5Q209 474 242.5 488.0Q276 502 315 502Q397 502 443.5 454.5Q490 407 490 316V0H392V280Q392 351 366.5 384.0Q341 417 288 417Q248 417 221.5 399.0Q195 381 181.0 342.0Q167 303 167 243V0Z" fill="#D1396A" transform="translate(20.000 420.000) scale(0.400000 -0.400000)"/>
  <path d="M68 0V493H167V386L147 380Q160 421 184.5 447.5Q209 474 242.5 488.0Q276 502 315 502Q397 502 443.5 454.5Q490 407 490 316V0H392V280Q392 351 366.5 384.0Q341 417 288 417Q248 417 221.5 399.0Q195 381 181.0 342.0Q167 303 167 243V0Z" fill="#D1396A" transform="translate(217.200 420.000) scale(0.400000 -0.400000)"/>
</svg>
